<svg width="50" height="50" viewBox="0 0 50 50" fill="none" xmlns="http://www.w3.org/2000/svg">
<rect width="50" height="50" rx="10" fill="#8752A1" fill-opacity="0.2"/>
<path d="M19.4919 15.25C19.0996 15.25 18.7126 15.391 18.3901 15.6482L18.3436 15.6715L18.3204 15.6955L15.9766 18.1098L15.9999 18.1322C15.656 18.4445 15.4123 18.8517 15.2997 19.3023C15.187 19.753 15.2104 20.2269 15.3669 20.6642C15.3699 20.6702 15.3639 20.6815 15.3669 20.6875C16.0029 22.507 17.6289 26.02 20.8044 29.1955C23.9919 32.383 27.5514 33.9445 29.3124 34.633H29.3356C29.777 34.7789 30.2485 34.808 30.7045 34.7176C31.1604 34.6272 31.5851 34.4203 31.9374 34.117L34.3044 31.75C34.9254 31.129 34.9254 30.0505 34.3044 29.4295L31.2579 26.383L31.2339 26.3357C30.6129 25.7147 29.5119 25.7147 28.8901 26.3357L27.3901 27.8357C26.2644 27.2949 25.229 26.5836 24.3204 25.7267C23.0926 24.5545 22.4656 23.2067 22.2346 22.6795L23.7346 21.1795C24.3646 20.5495 24.3759 19.501 23.7106 18.883L23.7339 18.859L23.6641 18.7892L20.6641 15.6955L20.6409 15.6722L20.5936 15.6482C20.2824 15.3941 19.8937 15.2536 19.4919 15.25ZM19.4919 16.75C19.5532 16.7536 19.6113 16.7785 19.6561 16.8205L22.6561 19.8902L22.7266 19.9607C22.7206 19.9547 22.7701 20.0342 22.6794 20.125L20.8044 22L20.4526 22.3285L20.6176 22.7965C20.6176 22.7965 21.4786 25.1027 23.2891 26.8285L23.4534 26.9687C25.1956 28.5595 27.2499 29.4295 27.2499 29.4295L27.7186 29.641L29.9454 27.4135C30.0744 27.2852 30.0504 27.2852 30.1794 27.4135L33.2499 30.4855C33.3789 30.6137 33.3789 30.5672 33.2499 30.6955L30.9526 32.9927C30.6076 33.289 30.2409 33.3505 29.8051 33.2042C28.1056 32.536 24.8034 31.0855 21.8589 28.1417C18.8911 25.1732 17.3416 21.8072 16.7739 20.173C16.6591 19.8677 16.7409 19.417 17.0079 19.1883L17.0544 19.141L19.3284 16.8212C19.3727 16.7793 19.4303 16.7541 19.4911 16.75H19.4919Z" fill="#FEBC14"/>
</svg>
