<svg width="33" height="40" viewBox="0 0 33 40" fill="none" xmlns="http://www.w3.org/2000/svg">
<path d="M11.8689 5.25393V5.64312C10.7014 5.83771 9.65545 6.08095 8.70682 6.39715C3.47721 8.09982 1.94481 11.1403 1.55563 12.3078C1.50699 12.3565 1.45834 12.3808 1.43401 12.4294V11.2376C1.40969 10.7025 1.40969 10.1673 1.43401 9.65654C1.45834 8.78088 1.45834 7.92955 1.45834 7.12687C1.43401 6.42148 1.43401 5.71608 1.43401 5.08367C1.45834 2.16481 3.64748 0 6.54201 0C9.48518 0.0243238 11.8446 2.35941 11.8689 5.25393Z" fill="url(#paint0_linear_203_1002)"/>
<path d="M11.8687 7.56445V9.559C11.8201 9.559 11.7714 9.53468 11.7228 9.53468C10.1904 9.43738 8.85259 9.48603 7.73369 9.6563C7.22289 9.72927 6.76074 9.80224 6.32291 9.92386C6.32291 9.94819 6.29859 9.94818 6.29859 9.94818C6.22562 9.94818 6.2013 9.9725 6.15265 9.9725C5.71482 10.0698 5.34996 10.1914 4.98511 10.313C6.32291 9.19414 8.39044 8.2212 11.5282 7.6131C11.5525 7.6131 11.5525 7.58878 11.5768 7.58878C11.6255 7.56445 11.6741 7.56445 11.7471 7.56445C11.7714 7.58878 11.8201 7.56445 11.8687 7.56445Z" fill="url(#paint1_linear_203_1002)"/>
<path d="M18.339 31.9612C15.3472 31.6207 8.73112 30.0639 5.05823 23.3992C3.50151 20.5777 2.79612 18.2426 2.62585 16.2724C2.52856 15.2264 2.60153 14.3265 2.7718 13.5238C2.91774 13.0859 3.08801 12.6481 3.35557 12.186C4.23122 11.3103 5.25282 10.5806 6.29874 9.94818H6.32307C6.32307 9.94818 6.34739 9.94819 6.34739 9.92386C8.196 8.85362 10.1419 8.07526 11.5284 7.6131C11.5527 7.6131 11.5527 7.58878 11.577 7.58878C11.6256 7.56445 11.6743 7.56445 11.7473 7.56445V24.056C11.7473 25.8073 12.1851 27.5829 13.2553 28.9937C14.3499 30.5018 16.0282 31.645 18.339 31.9612Z" fill="url(#paint2_linear_203_1002)"/>
<path d="M27.3388 7.0293V10.7752C27.3388 13.8156 24.8821 16.2723 21.8416 16.2723H2.62585C2.52856 15.2264 2.60153 14.3264 2.7718 13.5237C2.91774 13.0859 3.08801 12.6481 3.35557 12.1859C3.72042 11.5535 4.23122 10.9454 4.96094 10.3373C6.29874 9.21844 8.36626 8.24549 11.504 7.63739C11.5284 7.63739 11.5284 7.61307 11.5527 7.61307C11.6013 7.58875 11.65 7.58875 11.7229 7.58875C11.7716 7.58875 11.8202 7.56442 11.8689 7.56442C13.6688 7.24821 15.8093 7.05362 18.339 7.05362L27.3388 7.0293Z" fill="url(#paint3_linear_203_1002)"/>
<path d="M0.65557 14.4492C0.65557 14.4492 -3.26056 29.5056 8.05 37.0703C18.5579 43.6134 32.6413 32.911 32.6413 32.911C32.6413 32.911 17.9984 37.9703 9.09592 30.7461C0.193419 23.522 0.65557 14.4492 0.65557 14.4492Z" fill="url(#paint4_linear_203_1002)"/>
<defs>
<linearGradient id="paint0_linear_203_1002" x1="6.64234" y1="0" x2="6.64234" y2="12.4294" gradientUnits="userSpaceOnUse">
<stop stop-color="#8752A1"/>
<stop offset="1" stop-color="#8752A1"/>
</linearGradient>
<linearGradient id="paint1_linear_203_1002" x1="8.42692" y1="7.56445" x2="8.42692" y2="10.313" gradientUnits="userSpaceOnUse">
<stop stop-color="#8752A1"/>
<stop offset="1" stop-color="#8752A1"/>
</linearGradient>
<linearGradient id="paint2_linear_203_1002" x1="10.4606" y1="7.56445" x2="10.4606" y2="31.9612" gradientUnits="userSpaceOnUse">
<stop stop-color="#8752A1"/>
<stop offset="1" stop-color="#8752A1"/>
</linearGradient>
<linearGradient id="paint3_linear_203_1002" x1="14.9605" y1="7.0293" x2="14.9605" y2="16.2723" gradientUnits="userSpaceOnUse">
<stop stop-color="#8752A1"/>
<stop offset="1" stop-color="#8752A1"/>
</linearGradient>
<linearGradient id="paint4_linear_203_1002" x1="-0.00890679" y1="26.8198" x2="32.6091" y2="26.8198" gradientUnits="userSpaceOnUse">
<stop offset="0.00529101" stop-color="#FFC713"/>
<stop offset="1" stop-color="#F04923"/>
</linearGradient>
</defs>
</svg>
