<svg width="145" height="21" viewBox="0 0 145 21" fill="none" xmlns="http://www.w3.org/2000/svg">
<path d="M16.5219 0.634766V4.84278H11.0977V19.7776H6.28162V4.84278H0.857422V0.634766H16.5219Z" fill="#F4F4F4"/>
<path d="M23.7463 15.5696H32.1623V19.7776H18.9302V0.634766H32.0164V4.84278H23.7463V8.00487H31.2623V12.1642H23.7463V15.5696Z" fill="#F4F4F4"/>
<path d="M45.224 20.1663C42.0862 20.1663 39.4593 19.2177 37.3918 17.2961C35.3242 15.3988 34.2783 13.0151 34.2783 10.1935C34.2783 7.37199 35.3242 5.01258 37.3918 3.091C39.4593 1.19375 42.0862 0.245117 45.224 0.245117C47.0969 0.245117 48.8483 0.634303 50.4536 1.43699C52.059 2.23967 53.3238 3.30991 54.2481 4.67205L50.0888 6.86119C49.6266 6.10715 48.9699 5.52338 48.0942 5.1342C47.2429 4.72069 46.2699 4.5261 45.1997 4.5261C43.3268 4.5261 41.843 5.0369 40.7241 6.08282C39.6052 7.12874 39.0458 8.49087 39.0458 10.2179C39.0458 11.9205 39.6052 13.307 40.7241 14.3529C41.843 15.3988 43.3268 15.9096 45.1997 15.9096C46.2699 15.9096 47.2186 15.6907 48.0942 15.2772C48.9699 14.8637 49.6266 14.2799 50.0644 13.5502L54.2238 15.7394C53.3238 17.1015 52.059 18.1961 50.4536 18.9744C48.8726 19.7771 47.1213 20.1663 45.224 20.1663Z" fill="#F4F4F4"/>
<path d="M68.5262 0.634766H73.3423V19.7776H68.5262V12.1642H61.9101V19.7776H57.094V0.634766H61.9101V7.95622H68.5262V0.634766Z" fill="#F4F4F4"/>
<path d="M95.0634 17.2962C92.9472 19.2177 90.3446 20.1664 87.3041 20.1664C84.2636 20.1664 81.661 19.2177 79.5448 17.2962C77.4286 15.3746 76.3584 13.0152 76.3584 10.2179C76.3584 7.42072 77.4286 5.03699 79.5448 3.13974C81.661 1.21816 84.2636 0.269531 87.3041 0.269531C90.3446 0.269531 92.9472 1.21816 95.0634 3.13974C97.1795 5.06132 98.2498 7.42072 98.2498 10.2179C98.2498 13.0152 97.2039 15.3746 95.0634 17.2962ZM82.9258 14.3043C84.0934 15.3503 85.5528 15.8854 87.3041 15.8854C89.0554 15.8854 90.5148 15.3503 91.6824 14.3043C92.8499 13.2584 93.4337 11.872 93.4337 10.1936C93.4337 8.51529 92.8499 7.15316 91.6824 6.08291C90.5148 5.03699 89.0554 4.50186 87.3041 4.50186C85.5528 4.50186 84.0934 5.03699 82.9258 6.08291C81.7583 7.12883 81.1745 8.51529 81.1745 10.1936C81.1745 11.872 81.7583 13.2584 82.9258 14.3043Z" fill="#F4F4F4"/>
<path d="M114.06 4.84278H106.082V8.53999H113.89V12.748H106.058V19.7776H101.242V0.634766H114.036V4.84278H114.06Z" fill="#F4F4F4"/>
<path d="M117.222 0.634766H122.039V19.7776H117.222V0.634766Z" fill="#F4F4F4"/>
<path d="M135.976 20.1663C132.838 20.1663 130.211 19.2177 128.144 17.2961C126.076 15.3988 125.03 13.0151 125.03 10.1935C125.03 7.37199 126.076 5.01258 128.144 3.091C130.211 1.19375 132.838 0.245117 135.976 0.245117C137.873 0.245117 139.6 0.634303 141.206 1.43699C142.811 2.23967 144.076 3.30991 145 4.67205L140.841 6.86119C140.379 6.10715 139.722 5.52338 138.846 5.1342C137.995 4.72069 137.022 4.5261 135.952 4.5261C134.079 4.5261 132.595 5.0369 131.476 6.08282C130.357 7.12874 129.798 8.49087 129.798 10.2179C129.798 11.9205 130.357 13.307 131.476 14.3529C132.595 15.3988 134.079 15.9096 135.952 15.9096C137.022 15.9096 137.971 15.6907 138.846 15.2772C139.722 14.8637 140.379 14.2799 140.816 13.5502L144.976 15.7394C144.076 17.1015 142.811 18.1961 141.206 18.9744C139.649 19.7771 137.898 20.1663 135.976 20.1663Z" fill="#F4F4F4"/>
</svg>
